<?xml version="1.0" encoding="UTF-8"?>
<!DOCTYPE svg PUBLIC "-//W3C//DTD SVG 1.1//EN" "http://www.w3.org/Graphics/SVG/1.1/DTD/svg11.dtd">
<!-- Creator: CorelDRAW -->
<svg xmlns="http://www.w3.org/2000/svg" xml:space="preserve" width="2.33333in" height="2.33333in" version="1.1" style="shape-rendering:geometricPrecision; text-rendering:geometricPrecision; image-rendering:optimizeQuality; fill-rule:evenodd; clip-rule:evenodd"
viewBox="0 0 2333 2333"
 xmlns:xlink="http://www.w3.org/1999/xlink">
 <defs>
  <style type="text/css">
   <![CDATA[
    .fil1 {fill:#666666}
    .fil3 {fill:#99471C}
    .fil0 {fill:#DBF4F4}
    .fil6 {fill:#FEB61E}
    .fil4 {fill:#FECA21}
    .fil2 {fill:#FF2C00}
    .fil5 {fill:white}
   ]]>
  </style>
 </defs>
 <g id="Layer_x0020_1">
  <metadata id="CorelCorpID_0Corel-Layer"/>
  <path class="fil0" d="M1167 865l-771 0 0 989c0,92 75,166 166,166l605 0 605 0c91,0 165,-74 165,-166l0 -989 -770 0z"/>
  <path class="fil1" d="M1697 1649c73,-90 107,-197 75,-311 -14,-46 -43,-102 -77,-138 -17,-19 11,-46 29,-27 36,39 69,104 83,154 38,127 3,245 -80,347 -4,4 -9,7 -15,7 -16,0 -26,-19 -15,-32z"/>
  <path class="fil1" d="M637 1649c10,13 0,32 -16,32 -5,0 -11,-3 -15,-7 -82,-102 -118,-220 -80,-347 15,-50 48,-115 84,-154 17,-19 46,8 28,27 -34,36 -63,92 -76,139 -32,114 1,220 75,310z"/>
  <path class="fil1" d="M764 1567c10,13 1,32 -15,32 -6,0 -12,-2 -15,-7 -48,-58 -74,-125 -63,-200 7,-48 30,-100 63,-135 18,-18 46,8 29,27 -23,25 -42,60 -50,92 -18,70 5,136 51,191z"/>
  <path class="fil1" d="M1599 1257c33,35 57,87 64,135 11,75 -16,142 -63,200 -4,5 -9,7 -15,7 -16,0 -26,-19 -15,-32 46,-56 69,-124 49,-196 -9,-30 -27,-64 -48,-87 -18,-18 10,-45 28,-27z"/>
  <path class="fil2" d="M396 865l1541 0 0 -220c0,-92 -74,-166 -165,-166 -312,0 -898,0 -1210,0 -91,0 -166,74 -166,166l0 220z"/>
  <path class="fil3" d="M848 592l0 -222c0,-31 -25,-57 -56,-57 -31,0 -56,26 -56,57l0 222c0,74 112,74 112,0z"/>
  <path class="fil3" d="M1485 370l0 222c0,74 113,74 113,0l0 -222c0,-74 -113,-74 -113,0z"/>
  <g id="_302090528">
   <path class="fil2" d="M1167 1925c-66,0 -119,-54 -119,-119 0,-14 3,-27 7,-40 6,-16 217,-16 223,0 5,13 7,26 7,40 0,65 -53,119 -118,119z"/>
   <path class="fil4" d="M779 1693c49,-97 82,-219 73,-288 -19,-143 74,-273 210,-316 -5,-62 43,-114 105,-114 61,0 110,52 105,114 135,43 228,173 209,316 -9,77 29,200 73,288l-775 0z"/>
   <path class="fil5" d="M1019 1406c7,0 13,-5 14,-12 8,-54 31,-104 78,-133 18,-12 44,-22 67,-23 19,-1 18,-29 -1,-29 -34,1 -71,17 -97,38 -45,36 -67,87 -75,143 -2,8 5,16 14,16z"/>
   <path class="fil6" d="M1572 1806l-287 0 -237 0 -287 0c-24,0 -39,-28 -24,-47 16,-22 30,-44 42,-66l775 0c13,22 27,44 43,66 14,19 0,47 -25,47z"/>
  </g>
 </g>
</svg>
